<svg width="50" height="50" viewBox="0 0 50 50" fill="none" xmlns="http://www.w3.org/2000/svg">
<g id="Adobe Illustrator" clip-path="url(#clip0_177_522)">
<path id="bg" d="M0 18.0952C0 11.7613 0 8.59435 1.23266 6.17511C2.31695 4.04708 4.04708 2.31695 6.17511 1.23266C8.59435 0 11.7613 0 18.0952 0H31.9048C38.2387 0 41.4057 0 43.8249 1.23266C45.9529 2.31695 47.6831 4.04708 48.7673 6.17511C50 8.59435 50 11.7613 50 18.0952V31.9048C50 38.2387 50 41.4057 48.7673 43.8249C47.6831 45.9529 45.9529 47.6831 43.8249 48.7673C41.4057 50 38.2387 50 31.9048 50H18.0952C11.7613 50 8.59435 50 6.17511 48.7673C4.04708 47.6831 2.31695 45.9529 1.23266 43.8249C0 41.4057 0 38.2387 0 31.9048V18.0952Z" fill="#330000"/>
<g id="Vector">
<path d="M24.2294 31.4219H16.4813L14.9048 36.4446C14.861 36.6312 14.6892 36.7633 14.5023 36.7542H10.5779C10.3541 36.7542 10.2759 36.628 10.3431 36.3758L17.0514 16.5604C17.1186 16.354 17.1857 16.1189 17.2527 15.8551C17.3405 15.3961 17.3854 14.9296 17.3869 14.4619C17.3677 14.3237 17.4891 14.2017 17.6217 14.221H22.9548C23.111 14.221 23.2005 14.2784 23.2231 14.3931L30.8371 36.4101C30.9042 36.6397 30.8371 36.7543 30.6358 36.7542H26.2754C26.1224 36.7716 25.9764 36.6667 25.94 36.5134L24.2294 31.4219ZM17.6887 27.0873H22.9883C22.1176 24.112 21.135 21.1758 20.3386 18.1773C19.4793 21.1808 18.5418 24.1723 17.6887 27.0873Z" fill="#FF9A00"/>
<path d="M35.3648 17.8675C35.0227 17.8816 34.6816 17.8215 34.3637 17.6911C34.0458 17.5607 33.7583 17.3629 33.52 17.1107C33.2824 16.8476 33.0979 16.5389 32.977 16.2024C32.8561 15.8658 32.8012 15.5081 32.8156 15.1498C32.8034 14.795 32.8643 14.4416 32.9944 14.1126C33.1244 13.7836 33.3207 13.4864 33.5703 13.2405C33.8175 12.9971 34.1093 12.8064 34.4289 12.6795C34.7484 12.5525 35.0893 12.4918 35.4319 12.5009C36.2369 12.5009 36.8686 12.7474 37.327 13.2405C37.5584 13.4968 37.7382 13.7973 37.8562 14.1249C37.9742 14.4525 38.028 14.8008 38.0146 15.1498C38.0286 15.5095 37.972 15.8685 37.8481 16.2053C37.7242 16.5422 37.5356 16.8501 37.2934 17.1107C37.0403 17.3666 36.7383 17.5659 36.4064 17.6962C36.0744 17.8265 35.7198 17.8848 35.3648 17.8675ZM33.0504 36.41V19.966C33.0504 19.7596 33.1395 19.6564 33.3187 19.6564H37.4444C37.6231 19.6564 37.7126 19.7596 37.7127 19.966V36.41C37.7127 36.6396 37.6233 36.7542 37.4444 36.7541H33.3523C33.1511 36.7541 33.0504 36.6394 33.0504 36.41Z" fill="#FF9A00"/>
</g>
</g>
<defs>
<clipPath id="clip0_177_522">
<rect width="50" height="50" fill="white"/>
</clipPath>
</defs>
</svg>
