<svg width="50" height="50" viewBox="0 0 50 50" fill="none" xmlns="http://www.w3.org/2000/svg">
<g id="C++" clip-path="url(#clip0_68_126)">
<path id="Vector" d="M8.85417 4.03008e-06H41.1458C42.3089 -0.00112026 43.4607 0.233004 44.5355 0.688979C45.6102 1.14495 46.5867 1.81383 47.4091 2.65732C48.2315 3.50081 48.8837 4.50236 49.3283 5.60465C49.7728 6.70694 50.0011 7.88832 50 9.0812V40.9188C50.0011 42.1117 49.7728 43.2931 49.3283 44.3954C48.8837 45.4976 48.2315 46.4992 47.4091 47.3427C46.5867 48.1862 45.6102 48.855 44.5355 49.311C43.4607 49.767 42.3089 50.0011 41.1458 50H8.85417C7.69112 50.0011 6.53926 49.767 5.46453 49.311C4.3898 48.855 3.41329 48.1862 2.59088 47.3427C1.76848 46.4992 1.11633 45.4976 0.671755 44.3954C0.227179 43.2931 -0.00109226 42.1117 3.92932e-06 40.9188V9.0812C-0.00109226 7.88832 0.227179 6.70694 0.671755 5.60465C1.11633 4.50236 1.76848 3.50081 2.59088 2.65732C3.41329 1.81383 4.3898 1.14495 5.46453 0.688979C6.53926 0.233004 7.69112 -0.00112026 8.85417 4.03008e-06Z" fill="#659AD2"/>
<g id="C++_2">
<g id="Group">
<path id="Vector_2" d="M21.7672 40.5345C13.211 40.5345 6.25 33.5735 6.25 25.0172C6.25 16.461 13.211 9.5 21.7672 9.5C27.2883 9.5 32.4375 12.4711 35.205 17.2538L28.4896 21.1398C27.1044 18.7458 24.5284 17.2586 21.7672 17.2586C17.489 17.2586 14.0086 20.739 14.0086 25.0172C14.0086 29.2953 17.489 32.7759 21.7672 32.7759C24.5287 32.7759 27.1047 31.2886 28.49 28.8943L35.2055 32.7801C32.4379 37.5632 27.2886 40.5345 21.7672 40.5345Z" fill="white"/>
</g>
<g id="Group_2">
<path id="Vector_3" d="M37.2845 24.1551H35.5602V22.431H33.8363V24.1551H32.1121V25.8792H33.8363V27.6034H35.5602V25.8792H37.2845V24.1551Z" fill="white"/>
</g>
<g id="Group_3">
<path id="Vector_4" d="M43.7501 24.1551H42.0258V22.431H40.3019V24.1551H38.5776V25.8792H40.3019V27.6034H42.0258V25.8792H43.7501V24.1551Z" fill="white"/>
</g>
</g>
</g>
<defs>
<clipPath id="clip0_68_126">
<rect width="50" height="50" fill="white"/>
</clipPath>
</defs>
</svg>
