<svg width="50" height="50" viewBox="0 0 50 50" fill="none" xmlns="http://www.w3.org/2000/svg">
<g id="css" clip-path="url(#clip0_68_82)">
<path id="Vector" d="M8.85417 4.03008e-06H41.1458C42.3089 -0.00112026 43.4607 0.233004 44.5355 0.688979C45.6102 1.14495 46.5867 1.81383 47.4091 2.65732C48.2315 3.50081 48.8837 4.50236 49.3283 5.60465C49.7728 6.70694 50.0011 7.88832 50 9.0812V40.9188C50.0011 42.1117 49.7728 43.2931 49.3283 44.3954C48.8837 45.4976 48.2315 46.4992 47.4091 47.3427C46.5867 48.1862 45.6102 48.855 44.5355 49.311C43.4607 49.767 42.3089 50.0011 41.1458 50H8.85417C7.69112 50.0011 6.53926 49.767 5.46453 49.311C4.3898 48.855 3.41329 48.1862 2.59088 47.3427C1.76848 46.4992 1.11633 45.4976 0.671755 44.3954C0.227179 43.2931 -0.00109226 42.1117 3.92932e-06 40.9188V9.0812C-0.00109226 7.88832 0.227179 6.70694 0.671755 5.60465C1.11633 4.50236 1.76848 3.50081 2.59088 2.65732C3.41329 1.81383 4.3898 1.14495 5.46453 0.688979C6.53926 0.233004 7.69112 -0.00112026 8.85417 4.03008e-06Z" fill="#2965F1"/>
<g id="Group 2">
<path id="Vector_2" d="M12.2388 20.6119L12.7308 26.1019H25.0164V20.6119H12.2388ZM11.25 9.5L11.749 14.99H25.0164V9.5H11.25ZM25.0164 34.8701L24.9924 34.8765L18.8781 33.2256L18.4872 28.847H12.9761L13.7452 37.4672L24.9912 40.589L25.0164 40.5821V34.8701Z" fill="#EBEBEB"/>
<path id="Vector_3" d="M37.759 20.6119L38.75 9.5H24.9975V14.99H32.7334L32.2339 20.6119H24.9975V26.1019H31.7579L31.1205 33.2221L24.9973 34.8748V40.5864L36.2522 37.4672L36.3348 36.5397L37.6251 22.0861L37.759 20.6119Z" fill="white"/>
</g>
</g>
<defs>
<clipPath id="clip0_68_82">
<rect width="50" height="50" fill="white"/>
</clipPath>
</defs>
</svg>
