<svg width="50" height="50" viewBox="0 0 50 50" fill="none" xmlns="http://www.w3.org/2000/svg">
<g id="Figma">
<path id="Vector" d="M16.7318 50C21.3318 50 25.0651 46.2666 25.0651 41.6666V33.3333H16.7318C12.1318 33.3333 8.39844 37.0666 8.39844 41.6666C8.39844 46.2666 12.1318 50 16.7318 50Z" fill="#0ACF83"/>
<path id="Vector_2" d="M8.39844 25C8.39844 20.4 12.1318 16.6667 16.7318 16.6667H25.0651V33.3334H16.7318C12.1318 33.3334 8.39844 29.6 8.39844 25Z" fill="#A259FF"/>
<path id="Vector_3" d="M8.39844 8.33333C8.39844 3.73333 12.1318 0 16.7318 0H25.0651V16.6667H16.7318C12.1318 16.6667 8.39844 12.9333 8.39844 8.33333Z" fill="#F24E1E"/>
<path id="Vector_4" d="M25.0652 0H33.3985C37.9985 0 41.7319 3.73333 41.7319 8.33333C41.7319 12.9333 37.9985 16.6667 33.3985 16.6667H25.0652V0Z" fill="#FF7262"/>
<path id="Vector_5" d="M41.7319 25C41.7319 29.6 37.9985 33.3334 33.3985 33.3334C28.7985 33.3334 25.0652 29.6 25.0652 25C25.0652 20.4 28.7985 16.6667 33.3985 16.6667C37.9985 16.6667 41.7319 20.4 41.7319 25Z" fill="#1ABCFE"/>
</g>
</svg>
