<svg width="50" height="50" viewBox="0 0 50 50" fill="none" xmlns="http://www.w3.org/2000/svg">
<g id="Firefox" clip-path="url(#clip0_177_452)">
<g id="Group">
<path id="Vector" d="M39.8846 4.65381C38.6739 6.07265 38.1064 9.25086 39.336 12.4858C40.5657 15.7208 42.4575 15.0208 43.6304 18.3125C45.1817 22.6636 44.4628 28.5093 44.4628 28.5093C44.4628 28.5093 46.3357 33.9198 47.641 28.1688C50.5354 17.3666 39.8846 7.32123 39.8846 4.65381Z" fill="url(#paint0_radial_177_452)"/>
<path id="Path" d="M25.0527 49.5081C37.5196 49.5081 47.6029 39.3681 47.6029 26.8445C47.6029 14.3208 37.5007 4.19977 25.0527 4.19977C12.6047 4.19977 2.52151 14.3398 2.52151 26.8445C2.50259 39.3681 12.6047 49.5081 25.0527 49.5081Z" fill="url(#paint1_radial_177_452)"/>
<path id="Vector_2" d="M41.9468 40.8248C41.455 41.1654 40.9442 41.4681 40.4145 41.7518C41.1145 40.7113 41.7766 39.6519 42.363 38.5547C42.836 38.025 43.29 37.5142 43.6494 36.9467C43.8197 36.6629 44.0278 36.3413 44.2359 35.944C45.5034 33.655 46.9033 29.966 46.9412 26.1824V25.8986C46.9412 24.9527 46.8466 23.9879 46.6574 23.0609C46.6763 23.1366 46.6763 23.2123 46.6952 23.288C46.6763 23.2312 46.6763 23.1745 46.6574 23.1177C46.6763 23.2123 46.6952 23.3258 46.7141 23.4204C46.979 25.6149 46.7898 27.7526 45.8628 29.3417C45.8439 29.3606 45.825 29.3795 45.825 29.4174C46.298 27.0148 46.4682 24.3663 45.9385 21.7178C45.9385 21.7178 45.7304 20.4314 44.1413 16.5154C43.2333 14.2641 41.6063 12.4102 40.1875 11.067C38.9389 9.51573 37.7849 8.47525 37.1606 7.81312C35.8553 6.43211 35.3067 5.39163 35.0796 4.7295C34.8905 4.63491 32.3744 2.1945 32.1852 2.09991C31.088 3.80253 27.6638 9.09954 29.2908 14.0371C30.0286 16.2883 31.9014 18.6152 33.8689 19.9206C33.9635 20.0152 35.0418 21.1881 35.5526 23.8366C36.0823 26.5797 35.7985 28.6985 34.7202 31.8578C33.4338 34.6198 30.1421 37.3629 27.0585 37.6466C20.475 38.252 18.0535 34.336 18.0535 34.336C20.3994 35.2819 23.01 35.0738 24.5991 34.109C26.1882 33.1253 27.153 32.3875 27.9476 32.6712C28.7232 32.955 29.3286 32.1226 28.78 31.2524C27.9098 29.9092 26.3207 29.2282 24.7505 29.493C23.1614 29.7579 21.6858 31.0254 19.6048 29.7957C19.4724 29.72 19.34 29.6255 19.2075 29.5309C19.0751 29.4363 19.6616 29.6633 19.5102 29.5687C19.1129 29.3417 18.3751 28.8687 18.2049 28.6985C18.167 28.6606 18.5265 28.812 18.4886 28.7741C16.5401 27.1661 16.786 26.0689 16.8428 25.3878C16.8995 24.8392 17.2401 24.1393 17.8454 23.8555C18.1292 24.0068 18.3184 24.1393 18.3184 24.1393C18.3184 24.1393 18.186 23.8933 18.1292 23.7609C18.1481 23.742 18.167 23.7609 18.2049 23.742C18.4508 23.8555 18.9616 24.1582 19.2454 24.3284C19.6048 24.5744 19.7183 24.8014 19.7183 24.8014C19.7183 24.8014 19.8129 24.7446 19.7372 24.5365C19.7183 24.442 19.6048 24.1582 19.2454 23.8744H19.2643C19.4724 23.9879 19.6805 24.1393 19.8697 24.2906C19.9642 23.9312 20.1534 23.5528 20.1156 22.8718C20.0967 22.3988 20.0967 22.2664 20.021 22.0772C19.9453 21.9259 20.0588 21.8502 20.1913 22.0205C20.1723 21.888 20.1345 21.7556 20.0778 21.6421V21.6232C20.248 21.0556 23.5397 19.5611 23.7857 19.3909C24.1829 19.1071 24.5045 18.7477 24.7505 18.3315C24.9397 18.0477 25.0721 17.6315 25.1099 17.0072C25.1288 16.5532 24.9207 16.2505 21.5723 15.91C20.6642 15.8154 20.1156 15.1533 19.8129 14.5479C19.7561 14.4155 19.6994 14.302 19.6426 14.1695C19.5859 14.0371 19.548 13.8858 19.5102 13.7344C20.0588 12.1642 20.9669 10.84 22.329 9.83733C22.4047 9.76166 22.0263 9.85625 22.102 9.78058C22.1966 9.70491 22.7452 9.47789 22.8587 9.42114C22.9911 9.36439 22.3101 9.0617 21.7047 9.13737C21.0993 9.21304 20.9669 9.28871 20.6264 9.42114C20.7588 9.28871 21.1939 9.09954 21.0993 9.11845C20.4372 9.21304 19.6237 9.61032 18.9238 10.0454C18.9238 9.96976 18.9427 9.89409 18.9616 9.81842C18.64 9.95084 17.8265 10.5184 17.5995 10.9913C17.6184 10.8967 17.6184 10.8021 17.6184 10.7076C17.3725 10.9157 17.1455 11.1427 16.9563 11.4075L16.8428 11.4454C14.951 10.6886 13.2673 10.6319 11.8674 10.9724C11.5647 10.6697 11.4134 10.8967 10.6945 9.34547C10.6377 9.25088 10.7323 9.44006 10.6945 9.34547C10.581 9.04278 10.7701 9.74275 10.6945 9.34547C9.52156 10.2914 7.9703 11.3508 7.21358 12.0886C7.21358 12.1264 8.0838 11.8426 7.21358 12.0886C6.9109 12.1832 6.92981 12.3534 6.89198 13.9993C6.87306 14.1317 6.89198 14.2641 6.87306 14.3776C6.26769 15.1343 5.87041 15.7776 5.71907 16.1181C4.94343 17.4423 4.09213 19.5233 3.27866 22.7961C3.6381 21.907 4.07321 21.0556 4.58399 20.2422C3.90295 21.9826 3.24082 24.7257 3.1084 28.9255C3.27866 28.0553 3.48676 27.204 3.75161 26.3527C3.58135 29.8525 4.18672 33.3334 5.51097 36.5683C5.98392 37.7223 6.75955 39.4817 8.10272 41.4113C12.3025 45.8192 18.2049 48.5623 24.7505 48.5623C31.5798 48.5623 37.7281 45.5732 41.9468 40.8248Z" fill="url(#paint2_linear_177_452)"/>
<path id="Vector_3" d="M36.8765 44.022C45.1437 43.0571 48.8137 34.5441 44.1032 34.3738C39.8656 34.2414 32.9605 44.476 36.8765 44.022Z" fill="url(#paint3_radial_177_452)"/>
<path id="Vector_4" d="M44.7086 32.6334C50.4029 29.3227 48.9084 22.1718 48.9084 22.1718C48.9084 22.1718 46.7139 24.7257 45.2194 28.793C43.7627 32.8225 41.2845 34.6386 44.7086 32.6334Z" fill="url(#paint4_radial_177_452)"/>
<path id="Vector_5" d="M26.6422 48.2596C34.5877 50.7946 41.3981 44.5328 37.1984 42.4518C33.3769 40.5789 22.8775 47.0678 26.6422 48.2596Z" fill="url(#paint5_radial_177_452)"/>
<path id="Vector_6" d="M45.314 35.6792C45.5032 35.4143 45.768 34.5441 45.995 34.1468C47.3949 31.8767 47.4139 30.0795 47.4139 30.0416C48.2652 25.8229 48.1895 24.0825 47.6598 20.9043C47.2436 18.3314 45.4086 14.6424 43.8195 12.8831C42.1925 11.048 43.3276 11.6534 41.7574 10.3102C40.3764 8.7779 39.0143 7.24555 38.2954 6.64018C32.9984 2.21339 33.1119 1.26749 33.2254 1.11615C33.2065 1.13507 33.1876 1.15399 33.1498 1.19182C33.093 0.94589 33.0363 0.737793 33.0363 0.737793C33.0363 0.737793 30.1229 3.61331 29.5175 8.43738C29.1203 11.5777 30.2932 14.8695 32.0147 16.9693C32.9038 18.0666 33.9065 19.0503 35.0037 19.9205C36.2901 21.7745 37.009 24.0636 37.009 26.5229C37.009 32.6901 32.0147 37.6655 25.8475 37.6655C25.0151 37.6655 24.1638 37.5709 23.3503 37.3818C20.4369 36.8331 18.7722 35.3575 17.9209 34.3549C17.4479 33.7874 17.2398 33.3712 17.2398 33.3712C19.8505 34.2981 22.726 34.109 24.4854 33.1442C26.2447 32.1604 27.3231 31.4415 28.1933 31.7253C29.0446 32.0091 29.7256 31.1767 29.1203 30.3254C28.5149 29.4741 26.9636 28.2444 24.6556 28.5849C22.8963 28.8498 21.2693 30.0984 18.9613 28.8876C18.81 28.812 18.6587 28.7174 18.5262 28.6417C18.3749 28.5471 19.0181 28.7741 18.8668 28.6795C18.4127 28.4525 17.6182 27.9796 17.4101 27.8093C17.3722 27.7715 17.7506 27.9228 17.7317 27.885C15.575 26.2959 15.8399 25.2176 15.8966 24.5365C15.9534 23.9879 16.3507 23.3068 17.0128 23.0231C17.3344 23.1744 17.5236 23.3068 17.5236 23.3068C17.5236 23.3068 17.3912 23.0609 17.3155 22.9285C17.3344 22.9096 17.3722 22.9285 17.3912 22.9096C17.656 23.0231 18.2425 23.3068 18.5452 23.496C18.9424 23.742 19.0749 23.969 19.0749 23.969C19.0749 23.969 19.1884 23.9122 19.0938 23.7041C19.0559 23.6095 18.9424 23.3258 18.5452 23.042H18.5641C18.7911 23.1555 19.0181 23.3068 19.2262 23.4582C19.3397 23.0987 19.5289 22.7204 19.491 22.0393C19.4721 21.5664 19.4721 21.434 19.3775 21.2637C19.3019 21.1124 19.4154 21.0367 19.5667 21.207C19.5478 21.0745 19.491 20.961 19.4343 20.8286V20.8097C19.6235 20.2421 23.2746 18.7666 23.5395 18.5963C23.9746 18.3314 24.334 17.972 24.6178 17.5558C24.8259 17.272 24.9772 16.8558 25.0151 16.2316C25.034 15.9478 24.9394 15.7397 23.9746 15.5127C23.3881 15.3802 22.499 15.2667 21.0991 15.1343C20.0964 15.0397 19.491 14.3965 19.1505 13.7911C19.0938 13.6587 19.0181 13.5452 18.9613 13.4317C18.9046 13.2993 18.8478 13.1479 18.81 13.0155C19.4154 11.4264 20.5126 10.0832 21.9315 9.15626C22.0071 9.08059 21.6099 9.17517 21.6855 9.0995C21.7801 9.02383 22.4044 8.79682 22.5179 8.74006C22.6693 8.68331 21.9125 8.39954 21.2315 8.4563C20.5505 8.53197 20.418 8.58872 20.0397 8.74006C20.191 8.60764 20.664 8.43738 20.5505 8.43738C19.8694 8.51305 18.9613 8.89141 18.1857 9.32652C18.1857 9.25085 18.2046 9.17517 18.2236 9.0995C17.8641 9.23193 16.975 9.79947 16.7101 10.2724C16.729 10.1778 16.729 10.0832 16.729 10.0076C16.4642 10.2157 16.1993 10.4427 15.9912 10.7075L15.9723 10.7264C13.8724 9.96973 12.0185 9.91297 10.4672 10.2535C10.1267 9.95081 9.57807 9.47786 8.80244 7.94551C8.74568 7.85092 8.72677 8.13469 8.68893 8.0401C8.38624 7.34014 8.19707 6.18615 8.2349 5.3916C8.2349 5.3916 7.61061 5.67536 7.09983 6.86719C7.00524 7.07529 6.94848 7.20771 6.87281 7.32122C6.83498 7.35906 6.92957 6.92394 6.92957 6.96178C6.83498 7.11312 6.60796 7.32122 6.51337 7.60499C6.4377 7.81309 6.34311 7.92659 6.28636 8.17253L6.26744 8.19144C6.26744 8.11577 6.28636 7.88876 6.26744 7.92659C6.02151 8.41846 5.81341 8.92924 5.64315 9.44003C5.35938 10.3481 5.03778 11.5967 4.98102 13.2236C4.9621 13.3371 4.98102 13.4885 4.96211 13.602C4.29998 14.3587 3.84595 15.0019 3.67569 15.3235C2.82438 16.6477 1.87849 18.6909 0.970429 21.9448C1.3677 21.0556 1.85957 20.2043 2.42711 19.4098C1.67039 21.1313 0.932593 23.8555 0.78125 28.0174C0.970429 27.1472 1.19744 26.2959 1.48121 25.4635C1.34879 28.2444 1.67039 31.7064 3.42976 35.6035C4.47024 37.8925 6.87281 42.5463 12.7563 46.1786C12.7563 46.1786 14.7616 47.6731 18.1857 48.7893C18.4316 48.8838 18.6965 48.9784 18.9613 49.0541C18.8857 49.0163 18.7911 48.9784 18.7154 48.9595C21.0045 49.6406 23.3692 50 25.7718 50C34.6632 50 37.2928 46.4245 37.2928 46.4245L37.2739 46.4434C37.4063 46.3299 37.5198 46.1975 37.6333 46.084C36.2334 47.4082 33.0173 47.5028 31.8255 47.4082C33.8686 46.8029 35.2118 46.2921 37.8225 45.3084C38.1252 45.1949 38.4468 45.0624 38.7684 44.9111L38.863 44.8543C38.9197 44.8165 38.9954 44.7976 39.0522 44.7597C40.3196 44.1544 41.5304 43.4166 42.6276 42.5274C45.2572 40.4275 45.8248 38.3844 46.1274 37.0412C46.0896 37.1737 45.9572 37.4764 45.8626 37.6655C45.1815 39.1033 43.687 40.0113 42.0601 40.7681C42.8357 39.7465 43.5546 38.6871 44.2167 37.5899C44.7464 37.0602 44.8978 36.2278 45.314 35.6792Z" fill="url(#paint6_radial_177_452)"/>
<path id="Vector_7" d="M42.1169 40.6924C43.1952 39.5195 44.1411 38.1574 44.8789 36.625C46.7517 32.6901 49.6462 26.1256 47.376 19.2963C45.5788 13.8857 43.1006 10.9345 39.9602 8.04011C34.8524 3.34847 33.4335 1.24858 33.4335 0C33.4335 0 27.5312 6.56451 30.0851 13.4317C32.639 20.2989 37.8792 20.0341 41.3412 27.185C45.4275 35.6035 38.0495 44.7976 31.939 47.3704C32.3174 47.2947 45.5032 44.3057 46.2031 36.7575C46.1653 36.8899 45.8626 38.9898 42.1169 40.6924Z" fill="url(#paint7_radial_177_452)"/>
<path id="Vector_8" d="M25.015 16.2315C25.0339 15.7775 24.8069 15.4937 21.1179 15.1343C19.6045 15.0019 19.018 13.602 18.8478 12.9966C18.3181 14.3965 18.0911 15.8721 18.2046 17.6504C18.2803 18.8233 19.0748 20.0719 19.4342 20.7908C19.4342 20.7908 19.5099 20.6772 19.5478 20.6394C20.2477 19.9016 23.1989 18.7855 23.4827 18.6341C23.8043 18.4449 24.9772 17.5936 25.015 16.2315Z" fill="url(#paint8_linear_177_452)"/>
<path id="Vector_9" d="M8.80246 7.94552C8.7457 7.85093 8.72678 8.1347 8.68895 8.04011C8.38626 7.34015 8.19708 6.20507 8.25384 5.3916C8.25384 5.3916 7.62955 5.67537 7.11876 6.8672C7.02417 7.07529 6.96742 7.20772 6.89175 7.32123C6.85391 7.35906 6.9485 6.92395 6.9485 6.96179C6.85391 7.11313 6.6269 7.32123 6.53231 7.58608C6.45664 7.79417 6.36205 7.9266 6.30529 8.19145C6.28638 8.26712 6.32421 7.86985 6.30529 7.9266C5.09455 10.2535 4.86753 13.7722 4.99996 13.6209C7.57279 10.8778 10.5051 10.2346 10.5051 10.2346C10.1456 10.0076 9.46458 9.32652 8.80246 7.94552Z" fill="url(#paint9_linear_177_452)"/>
<path id="Vector_10" d="M18.5262 36.5872C14.9885 35.0738 10.959 32.9361 11.1103 28.0931C11.3184 21.7178 17.0695 22.9663 17.0695 22.9663C16.8614 23.0231 16.2749 23.4393 16.0668 23.8744C15.8587 24.423 15.4615 25.6716 16.6533 26.9769C18.5451 29.0201 12.7751 31.8199 21.6665 37.1169C21.8935 37.2304 19.5856 37.0413 18.5262 36.5872Z" fill="url(#paint10_linear_177_452)"/>
<path id="Vector_11" d="M17.2779 33.409C19.794 34.2793 22.7073 34.1279 24.4667 33.1631C25.6396 32.501 27.153 31.4605 28.0611 31.7253C27.2665 31.4037 26.6612 31.2524 25.9234 31.2335C25.7909 31.2335 25.6585 31.2335 25.5261 31.2146C25.2612 31.2146 24.9964 31.2335 24.7315 31.2524C24.2775 31.2902 23.7856 31.574 23.3316 31.5362C23.3127 31.5362 23.7667 31.347 23.7289 31.347C23.4829 31.4037 23.2181 31.4037 22.9532 31.4416C22.783 31.4605 22.6316 31.4794 22.4425 31.4983C17.2022 31.9334 12.7943 28.6606 12.7943 28.6606C12.416 29.9092 14.478 32.4253 17.2779 33.409Z" fill="url(#paint11_linear_177_452)"/>
<path id="Vector_12" d="M42.098 40.7302C47.395 35.5278 50.0625 29.2282 48.9274 22.1339C48.9274 22.1339 49.3814 25.7662 47.6599 29.4741C48.4923 25.8419 48.5869 21.3394 46.3924 16.6667C43.479 10.4427 38.6739 7.15097 36.8389 5.78888C34.0579 3.70791 32.9039 1.60802 32.885 1.17291C32.0526 2.87552 29.5365 8.70224 32.6202 13.7155C35.4957 18.426 40.036 19.807 43.1953 24.1203C49.0598 32.0848 42.098 40.7302 42.098 40.7302Z" fill="url(#paint12_linear_177_452)"/>
<path id="Vector_13" d="M41.341 27.2039C39.4871 23.3825 37.1791 21.7177 35.0035 19.9205C35.2495 20.28 35.3251 20.3935 35.4576 20.6394C37.3872 22.6825 40.2059 27.6769 38.1628 33.9576C34.2846 45.7624 18.8098 40.2005 17.1829 38.6493C17.845 45.4786 29.2714 48.7514 36.7251 44.3246C40.9437 40.2762 44.3679 33.4657 41.341 27.2039Z" fill="url(#paint13_linear_177_452)"/>
</g>
</g>
<defs>
<radialGradient id="paint0_radial_177_452" cx="0" cy="0" r="1" gradientUnits="userSpaceOnUse" gradientTransform="translate(48.291 15.439) rotate(2.26042) scale(17.4214 25.6781)">
<stop offset="0.1" stop-color="#FFEA00"/>
<stop offset="0.17" stop-color="#FFDE00"/>
<stop offset="0.28" stop-color="#FFBF00"/>
<stop offset="0.43" stop-color="#FF8E00"/>
<stop offset="0.77" stop-color="#FF272D"/>
<stop offset="0.87" stop-color="#E0255A"/>
<stop offset="0.95" stop-color="#CC2477"/>
<stop offset="1" stop-color="#C42482"/>
</radialGradient>
<radialGradient id="paint1_radial_177_452" cx="0" cy="0" r="1" gradientUnits="userSpaceOnUse" gradientTransform="translate(32.4702 7.73286) scale(49.4396 49.4396)">
<stop stop-color="#00CCDA"/>
<stop offset="0.22" stop-color="#0083FF"/>
<stop offset="0.26" stop-color="#007AF9"/>
<stop offset="0.33" stop-color="#005FE7"/>
<stop offset="0.44" stop-color="#2639AD"/>
<stop offset="0.52" stop-color="#401E84"/>
<stop offset="0.57" stop-color="#4A1475"/>
</radialGradient>
<linearGradient id="paint2_linear_177_452" x1="28.2394" y1="37.0386" x2="18.5145" y2="5.22682" gradientUnits="userSpaceOnUse">
<stop stop-color="#000F43" stop-opacity="0.4"/>
<stop offset="0.48" stop-color="#001962" stop-opacity="0.17"/>
<stop offset="1" stop-color="#002079" stop-opacity="0"/>
</linearGradient>
<radialGradient id="paint3_radial_177_452" cx="0" cy="0" r="1" gradientUnits="userSpaceOnUse" gradientTransform="translate(49.8175 33.2608) rotate(5.61742) scale(16.6198)">
<stop stop-color="#FFEA00"/>
<stop offset="0.5" stop-color="#FF272D"/>
<stop offset="1" stop-color="#C42482"/>
</radialGradient>
<radialGradient id="paint4_radial_177_452" cx="0" cy="0" r="1" gradientUnits="userSpaceOnUse" gradientTransform="translate(49.8808 17.254) rotate(5.61742) scale(27.7534 27.7534)">
<stop stop-color="#FFE900"/>
<stop offset="0.16" stop-color="#FFAF0E"/>
<stop offset="0.32" stop-color="#FF7A1B"/>
<stop offset="0.47" stop-color="#FF4E26"/>
<stop offset="0.62" stop-color="#FF2C2E"/>
<stop offset="0.76" stop-color="#FF1434"/>
<stop offset="0.89" stop-color="#FF0538"/>
<stop offset="1" stop-color="#FF0039"/>
</radialGradient>
<radialGradient id="paint5_radial_177_452" cx="0" cy="0" r="1" gradientUnits="userSpaceOnUse" gradientTransform="translate(51.2694 43.2419) rotate(5.61743) scale(25.4668 25.4668)">
<stop stop-color="#FF272D"/>
<stop offset="0.5" stop-color="#C42482"/>
<stop offset="0.99" stop-color="#620700"/>
</radialGradient>
<radialGradient id="paint6_radial_177_452" cx="0" cy="0" r="1" gradientUnits="userSpaceOnUse" gradientTransform="translate(37.0937 20.0164) scale(39.7345 39.7345)">
<stop offset="0.16" stop-color="#FFEA00"/>
<stop offset="0.23" stop-color="#FFDE00"/>
<stop offset="0.37" stop-color="#FFBF00"/>
<stop offset="0.54" stop-color="#FF8E00"/>
<stop offset="0.76" stop-color="#FF272D"/>
<stop offset="0.8" stop-color="#F92433"/>
<stop offset="0.84" stop-color="#E91C45"/>
<stop offset="0.89" stop-color="#CF0E62"/>
<stop offset="0.94" stop-color="#B5007F"/>
</radialGradient>
<radialGradient id="paint7_radial_177_452" cx="0" cy="0" r="1" gradientUnits="userSpaceOnUse" gradientTransform="translate(34.8154 1.58886) scale(45.2853)">
<stop offset="0.28" stop-color="#FFEA00"/>
<stop offset="0.4" stop-color="#FFDD00"/>
<stop offset="0.63" stop-color="#FFBA00"/>
<stop offset="0.86" stop-color="#FF9100"/>
<stop offset="0.93" stop-color="#FF6711"/>
<stop offset="0.99" stop-color="#FF4A1D"/>
</radialGradient>
<linearGradient id="paint8_linear_177_452" x1="8.30964" y1="18.5478" x2="27.8149" y2="15.5692" gradientUnits="userSpaceOnUse">
<stop stop-color="#C42482" stop-opacity="0.5"/>
<stop offset="0.47" stop-color="#FF272D" stop-opacity="0.5"/>
<stop offset="0.49" stop-color="#FF2C2C" stop-opacity="0.51"/>
<stop offset="0.68" stop-color="#FF7A1A" stop-opacity="0.72"/>
<stop offset="0.83" stop-color="#FFB20D" stop-opacity="0.87"/>
<stop offset="0.94" stop-color="#FFD605" stop-opacity="0.96"/>
<stop offset="1" stop-color="#FFE302"/>
</linearGradient>
<linearGradient id="paint9_linear_177_452" x1="8.16291" y1="13.4328" x2="6.12897" y2="6.12248" gradientUnits="userSpaceOnUse">
<stop stop-color="#891551" stop-opacity="0.6"/>
<stop offset="1" stop-color="#C42482" stop-opacity="0"/>
</linearGradient>
<linearGradient id="paint10_linear_177_452" x1="11.8757" y1="23.7055" x2="16.0656" y2="29.5586" gradientUnits="userSpaceOnUse">
<stop offset="0.01" stop-color="#891551" stop-opacity="0.5"/>
<stop offset="0.48" stop-color="#FF272D" stop-opacity="0.5"/>
<stop offset="1" stop-color="#FF272D" stop-opacity="0"/>
</linearGradient>
<linearGradient id="paint11_linear_177_452" x1="20.0409" y1="33.8955" x2="20.4243" y2="30.1351" gradientUnits="userSpaceOnUse">
<stop stop-color="#C42482"/>
<stop offset="0.08" stop-color="#C42482" stop-opacity="0.81"/>
<stop offset="0.21" stop-color="#C42482" stop-opacity="0.57"/>
<stop offset="0.33" stop-color="#C42482" stop-opacity="0.36"/>
<stop offset="0.45" stop-color="#C42482" stop-opacity="0.2"/>
<stop offset="0.56" stop-color="#C42482" stop-opacity="0.09"/>
<stop offset="0.67" stop-color="#C42482" stop-opacity="0.02"/>
<stop offset="0.77" stop-color="#C42482" stop-opacity="0"/>
</linearGradient>
<linearGradient id="paint12_linear_177_452" x1="32.2779" y1="1.83763" x2="47.8051" y2="36.5581" gradientUnits="userSpaceOnUse">
<stop stop-color="#FFF14F"/>
<stop offset="0.27" stop-color="#FFEE4C"/>
<stop offset="0.45" stop-color="#FFE643"/>
<stop offset="0.61" stop-color="#FFD834"/>
<stop offset="0.76" stop-color="#FFC41E"/>
<stop offset="0.89" stop-color="#FFAB02"/>
<stop offset="0.9" stop-color="#FFA900"/>
<stop offset="0.95" stop-color="#FFA000"/>
<stop offset="1" stop-color="#FF9100"/>
</linearGradient>
<linearGradient id="paint13_linear_177_452" x1="35.3607" y1="21.8073" x2="28.006" y2="41.5553" gradientUnits="userSpaceOnUse">
<stop stop-color="#FF8E00"/>
<stop offset="0.04" stop-color="#FF8E00" stop-opacity="0.86"/>
<stop offset="0.08" stop-color="#FF8E00" stop-opacity="0.73"/>
<stop offset="0.13" stop-color="#FF8E00" stop-opacity="0.63"/>
<stop offset="0.18" stop-color="#FF8E00" stop-opacity="0.56"/>
<stop offset="0.23" stop-color="#FF8E00" stop-opacity="0.51"/>
<stop offset="0.28" stop-color="#FF8E00" stop-opacity="0.5"/>
<stop offset="0.39" stop-color="#FF8E00" stop-opacity="0.48"/>
<stop offset="0.52" stop-color="#FF8E00" stop-opacity="0.42"/>
<stop offset="0.68" stop-color="#FF8E00" stop-opacity="0.31"/>
<stop offset="0.84" stop-color="#FF8E00" stop-opacity="0.17"/>
<stop offset="1" stop-color="#FF8E00" stop-opacity="0"/>
</linearGradient>
<clipPath id="clip0_177_452">
<rect width="50" height="50" fill="white"/>
</clipPath>
</defs>
</svg>
