<svg width="100" height="100" viewBox="0 0 100 100" fill="none" xmlns="http://www.w3.org/2000/svg">
<g id="Git">
<path id="Vector" d="M17.7083 8.06015e-06H82.2917C84.6178 -0.00224053 86.9215 0.466009 89.0709 1.37796C91.2204 2.28991 93.1734 3.62765 94.8182 5.31463C96.463 7.00162 97.7673 9.00471 98.6565 11.2093C99.5456 13.4139 100.002 15.7766 100 18.1624V81.8376C100.002 84.2234 99.5456 86.5861 98.6565 88.7907C97.7673 90.9953 96.463 92.9984 94.8182 94.6854C93.1734 96.3723 91.2204 97.7101 89.0709 98.622C86.9215 99.534 84.6178 100.002 82.2917 100H17.7083C15.3822 100.002 13.0785 99.534 10.9291 98.622C8.7796 97.7101 6.82658 96.3723 5.18177 94.6854C3.53696 92.9984 2.23266 90.9953 1.34351 88.7907C0.454359 86.5861 -0.00218452 84.2234 7.85865e-06 81.8376V18.1624C-0.00218452 15.7766 0.454359 13.4139 1.34351 11.2093C2.23266 9.00471 3.53696 7.00162 5.18177 5.31463C6.82658 3.62765 8.7796 2.28991 10.9291 1.37796C13.0785 0.466009 15.3822 -0.00224053 17.7083 8.06015e-06Z" fill="#2E2E2E"/>
<path id="Vector_2" d="M74.0573 47.773L52.2255 25.943C50.9694 24.6857 48.9303 24.6857 47.6726 25.943L43.1395 30.4768L48.8896 36.2271C50.2264 35.7758 51.7586 36.0784 52.8236 37.1437C53.8942 38.2156 54.1947 39.761 53.732 41.1023L59.2741 46.6446C60.6149 46.1825 62.1619 46.4811 63.2326 47.5536C64.7294 49.0501 64.7294 51.4749 63.2326 52.9718C61.7355 54.4691 59.3108 54.4691 57.8129 52.9718C56.6874 51.8453 56.409 50.1916 56.9791 48.8048L51.8105 43.636L51.81 57.2377C52.1749 57.4184 52.5193 57.6595 52.8234 57.9623C54.3198 59.4585 54.3198 61.8829 52.8234 63.3817C51.3266 64.8779 48.9008 64.8779 47.4055 63.3817C45.9089 61.8831 45.9089 59.4587 47.4055 57.9623C47.7754 57.593 48.2034 57.3136 48.66 57.1263V43.3982C48.2031 43.2116 47.7757 42.9343 47.4053 42.5621C46.2716 41.4293 45.9986 39.7655 46.58 38.3733L40.9115 32.7037L25.9433 47.6721C24.6856 48.9304 24.6856 50.9695 25.9433 52.227L47.7737 74.057C49.0306 75.3143 51.0689 75.3143 52.3275 74.057L74.057 52.3301C75.3143 51.0721 75.3143 49.0324 74.057 47.7748" fill="#F05133"/>
</g>
</svg>
