<svg width="75" height="75" viewBox="0 0 75 75" fill="none" xmlns="http://www.w3.org/2000/svg">
<g id="GitHub">
<circle id="Circle" cx="37.5" cy="37.5" r="31.25" fill="#181717"/>
<path id="Subtract" d="M10.6465 53.4923C14.4506 59.8653 20.4597 64.7697 27.6211 67.1539C29.1846 67.4397 29.7544 66.4748 29.7544 65.646C29.7544 65.3029 29.7486 64.6966 29.7409 63.8853C29.7319 62.9457 29.7204 61.7311 29.7122 60.332C21.0198 62.2197 19.1858 56.1422 19.1858 56.1422C17.7643 52.5336 15.7154 51.5725 15.7154 51.5725C12.8781 49.633 15.9303 49.6714 15.9303 49.6714C19.0669 49.8939 20.7167 52.8924 20.7167 52.8924C23.5042 57.6673 28.0316 56.288 29.8119 55.4899C30.0958 53.4698 30.9016 52.0924 31.7956 51.3116C24.8567 50.5231 17.5609 47.8412 17.5609 35.8665C17.5609 32.4555 18.7791 29.6662 20.7781 27.4811C20.4558 26.6907 19.3834 23.5138 21.0831 19.2108C21.0831 19.2108 23.7075 18.3705 29.6776 22.4145C32.1696 21.722 34.8439 21.3748 37.5009 21.3633C40.1541 21.3748 42.8284 21.722 45.3242 22.4145C51.2905 18.3705 53.9091 19.2108 53.9091 19.2108C55.6146 23.5138 54.5422 26.6907 54.2199 27.4811C56.2227 29.6662 57.4332 32.4555 57.4332 35.8665C57.4332 47.8719 50.126 50.5135 43.1641 51.2867C44.2863 52.2516 45.2858 54.1585 45.2858 57.0745C45.2858 59.8676 45.2687 62.3003 45.2573 63.9118C45.2517 64.71 45.2475 65.3067 45.2475 65.646C45.2475 66.4824 45.8096 67.4551 47.3961 67.15C53.101 65.2458 58.074 61.7429 61.7821 57.1725C56.0526 64.2357 47.3035 68.75 37.5 68.75C26.0853 68.75 16.1001 62.63 10.6465 53.4923Z" fill="white"/>
</g>
</svg>
