<svg width="64" height="64" viewBox="0 0 64 64" fill="none" xmlns="http://www.w3.org/2000/svg">
<g id="instagram">
<path id="bg" d="M0 32C0 49.6731 14.3269 64 32 64C49.6731 64 64 49.6731 64 32C64 14.3269 49.6731 0 32 0C14.3269 0 0 14.3269 0 32Z" fill="#F00073"/>
<g id="instagram_2">
<path d="M31.9999 18.4C36.3999 18.4 36.9999 18.4 38.7999 18.4C40.3999 18.4 41.1999 18.8 41.7999 19C42.5999 19.4 43.1999 19.6 43.7999 20.2C44.3999 20.8 44.7999 21.4 44.9999 22.2C45.1999 22.8 45.3999 23.6 45.5999 25.2C45.5999 27 45.5999 27.4 45.5999 32C45.5999 36.6 45.5999 37 45.5999 38.8C45.5999 40.4 45.1999 41.2 44.9999 41.8C44.5999 42.6 44.3999 43.2 43.7999 43.8C43.1999 44.4 42.5999 44.8 41.7999 45C41.1999 45.2 40.3999 45.4 38.7999 45.6C36.9999 45.6 36.5999 45.6 31.9999 45.6C27.3999 45.6 26.9999 45.6 25.1999 45.6C23.5999 45.6 22.7999 45.2 22.1999 45C21.3999 44.6 20.7999 44.4 20.1999 43.8C19.5999 43.2 19.1999 42.6 18.9999 41.8C18.7999 41.2 18.5999 40.4 18.3999 38.8C18.3999 37 18.3999 36.6 18.3999 32C18.3999 27.4 18.3999 27 18.3999 25.2C18.3999 23.6 18.7999 22.8 18.9999 22.2C19.3999 21.4 19.5999 20.8 20.1999 20.2C20.7999 19.6 21.3999 19.2 22.1999 19C22.7999 18.8 23.5999 18.6 25.1999 18.4C26.9999 18.4 27.5999 18.4 31.9999 18.4ZM31.9999 15.4C27.3999 15.4 26.9999 15.4 25.1999 15.4C23.3999 15.4 22.1999 15.8 21.1999 16.2C20.1999 16.6 19.1999 17.2 18.1999 18.2C17.1999 19.2 16.7999 20 16.1999 21.2C15.7999 22.2 15.5999 23.4 15.3999 25.2C15.3999 27 15.3999 27.6 15.3999 32C15.3999 36.6 15.3999 37 15.3999 38.8C15.3999 40.6 15.7999 41.8 16.1999 42.8C16.5999 43.8 17.1999 44.8 18.1999 45.8C19.1999 46.8 19.9999 47.2 21.1999 47.8C22.1999 48.2 23.3999 48.4 25.1999 48.6C26.9999 48.6 27.5999 48.6 31.9999 48.6C36.3999 48.6 36.9999 48.6 38.7999 48.6C40.5999 48.6 41.7999 48.2 42.7999 47.8C43.7999 47.4 44.7999 46.8 45.7999 45.8C46.7999 44.8 47.1999 44 47.7999 42.8C48.1999 41.8 48.3999 40.6 48.5999 38.8C48.5999 37 48.5999 36.4 48.5999 32C48.5999 27.6 48.5999 27 48.5999 25.2C48.5999 23.4 48.1999 22.2 47.7999 21.2C47.3999 20.2 46.7999 19.2 45.7999 18.2C44.7999 17.2 43.9999 16.8 42.7999 16.2C41.7999 15.8 40.5999 15.6 38.7999 15.4C36.9999 15.4 36.5999 15.4 31.9999 15.4Z" fill="white"/>
<path d="M31.9999 23.4C27.1999 23.4 23.3999 27.2 23.3999 32C23.3999 36.8 27.1999 40.6 31.9999 40.6C36.7999 40.6 40.5999 36.8 40.5999 32C40.5999 27.2 36.7999 23.4 31.9999 23.4ZM31.9999 37.6C28.9999 37.6 26.3999 35.2 26.3999 32C26.3999 29 28.7999 26.4 31.9999 26.4C34.9999 26.4 37.5999 28.8 37.5999 32C37.5999 35 34.9999 37.6 31.9999 37.6Z" fill="white"/>
<path d="M40.7999 25.2C41.9045 25.2 42.7999 24.3046 42.7999 23.2C42.7999 22.0954 41.9045 21.2 40.7999 21.2C39.6953 21.2 38.7999 22.0954 38.7999 23.2C38.7999 24.3046 39.6953 25.2 40.7999 25.2Z" fill="white"/>
</g>
</g>
</svg>
