<svg width="75" height="75" viewBox="0 0 75 75" fill="none" xmlns="http://www.w3.org/2000/svg">
<g id="Linkedin">
<circle id="Circle" cx="37.5" cy="37.5" r="31.25" fill="#0077B5"/>
<g id="linkedin icon">
<g id="Group">
<path id="Vector" fill-rule="evenodd" clip-rule="evenodd" d="M29.3355 22.3186C29.3355 24.264 27.8542 25.8384 25.5377 25.8384C23.3115 25.8384 21.8302 24.264 21.876 22.3186C21.8302 20.2786 23.3115 18.75 25.5821 18.75C27.8542 18.75 29.2911 20.2786 29.3355 22.3186ZM22.0623 51.2798V28.6191H29.1049V51.2783H22.0623V51.2798Z" fill="white"/>
</g>
<g id="Group_2">
<path id="Vector_2" fill-rule="evenodd" clip-rule="evenodd" d="M34.7497 35.8509C34.7497 33.0245 34.6566 30.6148 34.5635 28.6221H40.6806L41.0058 31.7265H41.1448C42.0717 30.2896 44.3882 28.1135 48.1416 28.1135C52.7746 28.1135 56.2501 31.1721 56.2501 37.8422V51.2828H49.2074V38.7247C49.2074 35.8037 48.1889 33.8124 45.6403 33.8124C43.6934 33.8124 42.5359 35.1561 42.0731 36.4526C41.8869 36.9168 41.7952 37.5643 41.7952 38.2147V51.2828H34.7526V35.8509H34.7497Z" fill="white"/>
</g>
</g>
</g>
</svg>
