<svg width="50" height="50" viewBox="0 0 50 50" fill="none" xmlns="http://www.w3.org/2000/svg">
<g id="Microsoft Edge" clip-path="url(#clip0_177_400)">
<g id="Group">
<path id="Vector" d="M45.1172 37.207C44.4531 37.5586 43.7695 37.8711 43.0664 38.125C40.8203 38.9648 38.457 39.3945 36.0547 39.3945C26.8164 39.3945 18.7695 33.0469 18.7695 24.8828C18.7891 22.6563 20.0195 20.6055 21.9727 19.5508C13.6133 19.9023 11.4648 28.6133 11.4648 33.7109C11.4648 48.1445 24.7656 49.6094 27.6367 49.6094C29.1797 49.6094 31.5039 49.1602 32.9102 48.7109L33.1641 48.6328C38.5547 46.7773 43.125 43.1445 46.1719 38.3203C46.4062 37.9492 46.2891 37.4805 45.9375 37.2461C45.6836 37.0898 45.3711 37.0703 45.1172 37.207Z" fill="url(#paint0_linear_177_400)"/>
<path id="Vector_2" opacity="0.35" d="M45.1172 37.207C44.4531 37.5586 43.7695 37.8711 43.0664 38.125C40.8203 38.9648 38.457 39.3945 36.0547 39.3945C26.8164 39.3945 18.7695 33.0469 18.7695 24.8828C18.7891 22.6563 20.0195 20.6055 21.9727 19.5508C13.6133 19.9023 11.4648 28.6133 11.4648 33.7109C11.4648 48.1445 24.7656 49.6094 27.6367 49.6094C29.1797 49.6094 31.5039 49.1602 32.9102 48.7109L33.1641 48.6328C38.5547 46.7773 43.125 43.1445 46.1719 38.3203C46.4062 37.9492 46.2891 37.4805 45.9375 37.2461C45.6836 37.0898 45.3711 37.0703 45.1172 37.207Z" fill="url(#paint1_radial_177_400)"/>
<path id="Vector_3" d="M20.6446 47.1484C18.9064 46.0742 17.4025 44.6484 16.2111 42.9883C11.0743 35.957 12.6173 26.0938 19.6485 20.957C20.3907 20.4297 21.1525 19.9414 21.9728 19.5508C22.5782 19.2578 23.6134 18.75 25.0001 18.7695C26.9728 18.7891 28.8282 19.7266 30.0196 21.3086C30.8009 22.3633 31.2501 23.6328 31.2696 24.9609C31.2696 24.9219 36.0548 9.41406 15.6446 9.41406C7.07042 9.41406 0.0196434 17.5586 0.0196434 24.6875C-0.0194191 28.457 0.800893 32.207 2.38292 35.625C7.77355 47.1094 20.8986 52.7344 32.9298 48.7305C28.8087 50.0195 24.3165 49.4531 20.6446 47.1484Z" fill="url(#paint2_linear_177_400)"/>
<path id="Vector_4" opacity="0.41" d="M20.6446 47.1484C18.9064 46.0742 17.4025 44.6484 16.2111 42.9883C11.0743 35.957 12.6173 26.0938 19.6485 20.957C20.3907 20.4297 21.1525 19.9414 21.9728 19.5508C22.5782 19.2578 23.6134 18.75 25.0001 18.7695C26.9728 18.7891 28.8282 19.7266 30.0196 21.3086C30.8009 22.3633 31.2501 23.6328 31.2696 24.9609C31.2696 24.9219 36.0548 9.41406 15.6446 9.41406C7.07042 9.41406 0.0196434 17.5586 0.0196434 24.6875C-0.0194191 28.457 0.800893 32.207 2.38292 35.625C7.77355 47.1094 20.8986 52.7344 32.9298 48.7305C28.8087 50.0195 24.3165 49.4531 20.6446 47.1484Z" fill="url(#paint3_radial_177_400)"/>
<path id="Vector_5" d="M29.7461 29.082C29.5898 29.2773 29.1016 29.5703 29.1016 30.1953C29.1016 30.7031 29.4336 31.1914 30.0195 31.6016C32.832 33.5547 38.125 33.3008 38.1445 33.3008C40.2344 33.3008 42.2656 32.7344 44.0625 31.6797C47.7344 29.5313 50 25.6055 50 21.3477C50.0586 16.9727 48.4375 14.0625 47.793 12.7734C43.6523 4.66797 34.707 0 25 0C11.3281 0 0.195313 10.9766 0 24.6484C0.0976563 17.5195 7.1875 11.7578 15.625 11.7578C16.3086 11.7578 20.2148 11.8164 23.8281 13.7305C27.0117 15.4102 28.6914 17.4219 29.8438 19.4336C31.0547 21.5234 31.2695 24.1406 31.2695 25.1953C31.2695 26.2305 30.7422 27.793 29.7461 29.082Z" fill="url(#paint4_radial_177_400)"/>
<path id="Vector_6" d="M29.7461 29.082C29.5898 29.2773 29.1016 29.5703 29.1016 30.1953C29.1016 30.7031 29.4336 31.1914 30.0195 31.6016C32.832 33.5547 38.125 33.3008 38.1445 33.3008C40.2344 33.3008 42.2656 32.7344 44.0625 31.6797C47.7344 29.5313 50 25.6055 50 21.3477C50.0586 16.9727 48.4375 14.0625 47.793 12.7734C43.6523 4.66797 34.707 0 25 0C11.3281 0 0.195313 10.9766 0 24.6484C0.0976563 17.5195 7.1875 11.7578 15.625 11.7578C16.3086 11.7578 20.2148 11.8164 23.8281 13.7305C27.0117 15.4102 28.6914 17.4219 29.8438 19.4336C31.0547 21.5234 31.2695 24.1406 31.2695 25.1953C31.2695 26.2305 30.7422 27.793 29.7461 29.082Z" fill="url(#paint5_radial_177_400)"/>
</g>
</g>
<defs>
<linearGradient id="paint0_linear_177_400" x1="11.4657" y1="34.5743" x2="46.2864" y2="34.5743" gradientUnits="userSpaceOnUse">
<stop stop-color="#0C59A4"/>
<stop offset="1" stop-color="#114A8B"/>
</linearGradient>
<radialGradient id="paint1_radial_177_400" cx="0" cy="0" r="1" gradientUnits="userSpaceOnUse" gradientTransform="translate(30.7016 34.8508) scale(18.627 17.6937)">
<stop offset="0.72" stop-opacity="0"/>
<stop offset="0.95" stop-opacity="0.53"/>
<stop offset="1"/>
</radialGradient>
<linearGradient id="paint2_linear_177_400" x1="29.8383" y1="19.4817" x2="8.08558" y2="43.1755" gradientUnits="userSpaceOnUse">
<stop stop-color="#1B9DE2"/>
<stop offset="0.16" stop-color="#1595DF"/>
<stop offset="0.67" stop-color="#0680D7"/>
<stop offset="1" stop-color="#0078D4"/>
</linearGradient>
<radialGradient id="paint3_radial_177_400" cx="0" cy="0" r="1" gradientUnits="userSpaceOnUse" gradientTransform="translate(13.7908 38.869) rotate(-81.3826) scale(28.0074 22.6316)">
<stop offset="0.76" stop-opacity="0"/>
<stop offset="0.95" stop-opacity="0.5"/>
<stop offset="1"/>
</radialGradient>
<radialGradient id="paint4_radial_177_400" cx="0" cy="0" r="1" gradientUnits="userSpaceOnUse" gradientTransform="translate(5.04932 9.25634) rotate(92.2909) scale(39.5608 84.2692)">
<stop stop-color="#35C1F1"/>
<stop offset="0.11" stop-color="#34C1ED"/>
<stop offset="0.23" stop-color="#2FC2DF"/>
<stop offset="0.31" stop-color="#2BC3D2"/>
<stop offset="0.67" stop-color="#36C752"/>
</radialGradient>
<radialGradient id="paint5_radial_177_400" cx="0" cy="0" r="1" gradientUnits="userSpaceOnUse" gradientTransform="translate(46.8868 15.1183) rotate(73.7366) scale(19.0081 15.4603)">
<stop stop-color="#66EB6E"/>
<stop offset="1" stop-color="#66EB6E" stop-opacity="0"/>
</radialGradient>
<clipPath id="clip0_177_400">
<rect width="50" height="50" fill="white"/>
</clipPath>
</defs>
</svg>
