<svg width="50" height="50" viewBox="0 0 50 50" fill="none" xmlns="http://www.w3.org/2000/svg">
<g id="Group">
<path id="Vector" d="M49.7955 28.1744C51.5452 14.4769 41.872 1.95415 28.1994 0.204469C14.5269 -1.54522 1.95415 8.12804 0.204469 21.8006C-1.54522 35.4731 8.12804 48.0209 21.8006 49.7955C35.4981 51.5452 48.0209 41.872 49.7955 28.1744Z" fill="#FF6C37"/>
<g id="Group_2">
<path id="Vector_2" d="M34.0233 16.0516L23.4752 26.5997L20.5007 23.6252C30.8739 13.2521 31.8987 14.1519 34.0233 16.0516Z" fill="white"/>
<path id="Vector_3" d="M23.4752 26.8496C23.4003 26.8496 23.3503 26.8247 23.3003 26.7747L20.3008 23.8002C20.2008 23.7002 20.2008 23.5502 20.3008 23.4503C30.8489 12.9022 31.9487 13.902 34.1733 15.9016C34.2233 15.9516 34.2483 16.0016 34.2483 16.0766C34.2483 16.1516 34.2233 16.2016 34.1733 16.2516L23.6252 26.7747C23.6002 26.8247 23.5252 26.8496 23.4752 26.8496ZM20.8507 23.6252L23.4752 26.2498L33.6484 16.0766C31.7987 14.4269 30.549 13.927 20.8507 23.6252Z" fill="#FF6C37"/>
<path id="Vector_4" d="M26.4997 29.6241L23.6252 26.7496L34.1733 16.2015C36.9978 19.051 32.7736 23.6752 26.4997 29.6241Z" fill="white"/>
<path id="Vector_5" d="M26.4996 29.8741C26.4246 29.8741 26.3746 29.8491 26.3246 29.7991L23.4501 26.9247C23.4001 26.8747 23.4001 26.8247 23.4001 26.7497C23.4001 26.6747 23.4251 26.6247 23.4751 26.5747L34.0232 16.0266C34.1232 15.9266 34.2732 15.9266 34.3732 16.0266C35.0231 16.6265 35.373 17.4764 35.348 18.3512C35.298 21.1257 32.1486 24.6501 26.6996 29.7991C26.6246 29.8491 26.5496 29.8741 26.4996 29.8741ZM23.975 26.7497C25.5748 28.3744 26.2496 29.0243 26.4996 29.2742C30.6988 25.275 34.7731 21.1757 34.7981 18.3512C34.8231 17.7013 34.5731 17.0514 34.1482 16.5515L23.975 26.7497Z" fill="#FF6C37"/>
<path id="Vector_6" d="M20.5509 23.7002L22.6755 25.8248C22.7255 25.8748 22.7255 25.9248 22.6755 25.9748C22.6505 25.9998 22.6505 25.9998 22.6255 25.9998L18.2263 26.9496C18.0013 26.9746 17.8014 26.8247 17.7514 26.5997C17.7264 26.4747 17.7764 26.3497 17.8514 26.2748L20.4009 23.7252C20.4509 23.6752 20.5259 23.6502 20.5509 23.7002Z" fill="white"/>
<path id="Vector_7" d="M18.1511 27.1996C17.7762 27.1996 17.5012 26.8996 17.5012 26.5247C17.5012 26.3497 17.5762 26.1747 17.7012 26.0498L20.2507 23.5002C20.4007 23.3752 20.6007 23.3752 20.7506 23.5002L22.8753 25.6248C23.0252 25.7498 23.0252 25.9748 22.8753 26.1248C22.8253 26.1747 22.7753 26.1997 22.7003 26.2247L18.3011 27.1746C18.2511 27.1746 18.2011 27.1996 18.1511 27.1996ZM20.4757 23.9751L18.0261 26.4247C17.9761 26.4747 17.9511 26.5497 18.0011 26.6247C18.0261 26.6997 18.1011 26.7246 18.1761 26.6997L22.3004 25.7998L20.4757 23.9751Z" fill="#FF6C37"/>
<path id="Vector_8" d="M39.5972 10.2026C37.9975 8.65293 35.4229 8.70292 33.8732 10.3276C32.3235 11.9523 32.3735 14.5019 33.9982 16.0516C35.3229 17.3264 37.3226 17.5513 38.8973 16.6015L36.0478 13.752L39.5972 10.2026Z" fill="white"/>
<path id="Vector_9" d="M36.7978 17.4263C34.4232 17.4263 32.4985 15.5017 32.4985 13.1271C32.4985 10.7525 34.4232 8.82788 36.7978 8.82788C37.8976 8.82788 38.9724 9.2528 39.7722 10.0277C39.8222 10.0777 39.8472 10.1276 39.8472 10.2026C39.8472 10.2776 39.8222 10.3276 39.7722 10.3776L36.3978 13.752L39.0474 16.4015C39.1473 16.5015 39.1473 16.6515 39.0474 16.7515C39.0224 16.7764 39.0224 16.7764 38.9974 16.8014C38.3475 17.2014 37.5726 17.4263 36.7978 17.4263ZM36.7978 9.35279C34.6981 9.35279 32.9984 11.0525 33.0234 13.1521C33.0234 15.2517 34.7231 16.9514 36.8228 16.9264C37.3977 16.9264 37.9725 16.8014 38.4975 16.5265L35.8729 13.927C35.8229 13.877 35.7979 13.827 35.7979 13.752C35.7979 13.677 35.8229 13.627 35.8729 13.577L39.2223 10.2276C38.5474 9.65273 37.6976 9.35279 36.7978 9.35279Z" fill="#FF6C37"/>
<path id="Vector_10" d="M39.6722 10.2776L39.6222 10.2276L36.0479 13.752L38.8723 16.5765C39.1473 16.4015 39.4222 16.2016 39.6472 15.9766C41.2469 14.4019 41.2469 11.8523 39.6722 10.2776Z" fill="white"/>
<path id="Vector_11" d="M38.8975 16.8515C38.8226 16.8515 38.7726 16.8265 38.7226 16.7765L35.8731 13.927C35.8231 13.877 35.7981 13.827 35.7981 13.752C35.7981 13.677 35.8231 13.627 35.8731 13.577L39.4224 10.0277C39.5224 9.9277 39.6724 9.9277 39.7724 10.0277L39.8474 10.0777C41.5221 11.7524 41.5221 14.4519 39.8724 16.1516C39.6224 16.4015 39.3475 16.6265 39.0475 16.8015C38.9725 16.8265 38.9225 16.8515 38.8975 16.8515ZM36.398 13.752L38.9225 16.2766C39.1225 16.1516 39.3225 15.9766 39.4724 15.8266C40.8972 14.4019 40.9722 12.0773 39.5974 10.5776L36.398 13.752Z" fill="#FF6C37"/>
<path id="Vector_12" d="M34.4483 16.5015C33.8484 15.9016 32.8735 15.9016 32.2736 16.5015L22.8503 25.9248L24.4251 27.4995L34.3983 18.7511C35.0481 18.2012 35.0981 17.2264 34.5482 16.5765C34.4982 16.5515 34.4732 16.5265 34.4483 16.5015Z" fill="white"/>
<path id="Vector_13" d="M24.4001 27.7495C24.3251 27.7495 24.2751 27.7245 24.2251 27.6745L22.6504 26.0998C22.5504 25.9998 22.5504 25.8498 22.6504 25.7498L32.0737 16.3265C32.7736 15.6267 33.8984 15.6267 34.5983 16.3265C35.2981 17.0264 35.2981 18.1512 34.5983 18.8511C34.5733 18.8761 34.5483 18.9011 34.5233 18.9261L24.5501 27.6745C24.5251 27.7245 24.4751 27.7495 24.4001 27.7495ZM23.2003 25.9248L24.4251 27.1496L34.2233 18.5511C34.7732 18.1012 34.8232 17.2764 34.3733 16.7265C33.9234 16.1766 33.0985 16.1266 32.5486 16.5765C32.5236 16.6015 32.4987 16.6265 32.4487 16.6515L23.2003 25.9248Z" fill="#FF6C37"/>
<path id="Vector_14" d="M15.6266 36.6479C15.5267 36.6979 15.4767 36.7978 15.5017 36.8978L15.9266 38.6975C16.0266 38.9474 15.8766 39.2474 15.6017 39.3224C15.4017 39.3974 15.1767 39.3224 15.0518 39.1724L12.3022 36.4479L21.2756 27.4745L24.3751 27.5245L26.4747 29.6241C25.9748 30.0491 22.9503 32.9735 15.6266 36.6479Z" fill="white"/>
<path id="Vector_15" d="M15.4267 39.5724C15.2267 39.5724 15.0268 39.4974 14.9018 39.3474L12.1773 36.6229C12.1273 36.5729 12.1023 36.5229 12.1023 36.4479C12.1023 36.3729 12.1273 36.3229 12.1773 36.2729L21.1507 27.2996C21.2007 27.2496 21.2756 27.2246 21.3256 27.2246L24.4251 27.2746C24.5001 27.2746 24.5501 27.2996 24.6 27.3496L26.6997 29.4492C26.7497 29.4992 26.7747 29.5742 26.7747 29.6491C26.7747 29.7241 26.7497 29.7741 26.6747 29.8241L26.4997 29.9741C23.8502 32.2987 20.2508 34.6232 15.7766 36.8478L16.2016 38.6225C16.2765 38.9475 16.1266 39.2974 15.8266 39.4724C15.6767 39.5474 15.5517 39.5724 15.4267 39.5724ZM12.6772 36.4479L15.2517 38.9975C15.3267 39.1224 15.4767 39.1724 15.6017 39.0974C15.7266 39.0225 15.7766 38.8725 15.7016 38.7475L15.2767 36.9478C15.2267 36.7229 15.3267 36.5229 15.5267 36.4229C19.9509 34.1983 23.5252 31.8987 26.1498 29.6241L24.3001 27.7745L21.4256 27.7245L12.6772 36.4479Z" fill="#FF6C37"/>
<path id="Vector_16" d="M10.1776 38.5975L12.3273 36.4479L15.5267 39.6473L10.4276 39.2974C10.2026 39.2724 10.0527 39.0724 10.0777 38.8475C10.0777 38.7475 10.1027 38.6475 10.1776 38.5975Z" fill="white"/>
<path id="Vector_17" d="M15.5267 39.8723L10.4026 39.5224C10.0277 39.4974 9.77775 39.1724 9.80274 38.7975C9.82774 38.6475 9.87773 38.4976 10.0027 38.3976L12.1523 36.248C12.2523 36.148 12.4023 36.148 12.5023 36.248L15.7017 39.4474C15.7767 39.5224 15.8017 39.6224 15.7517 39.7223C15.7017 39.8223 15.6267 39.8723 15.5267 39.8723ZM12.3273 36.7979L10.3526 38.7725C10.2777 38.8225 10.2777 38.9475 10.3526 38.9975C10.3776 39.0225 10.4026 39.0475 10.4526 39.0475L14.8768 39.3474L12.3273 36.7979Z" fill="#FF6C37"/>
<path id="Vector_18" d="M20.4006 28.6243C20.2506 28.6243 20.1506 28.4993 20.1506 28.3743C20.1506 28.2994 20.1756 28.2494 20.2256 28.1994L22.6502 25.7748C22.7502 25.6748 22.9001 25.6748 23.0001 25.7748L24.5748 27.3495C24.6498 27.4245 24.6748 27.4995 24.6498 27.5995C24.6248 27.6745 24.5498 27.7495 24.4499 27.7745L20.4506 28.6243C20.4256 28.6243 20.4006 28.6243 20.4006 28.6243ZM22.8252 26.2997L21.1755 27.9494L23.875 27.3745L22.8252 26.2997Z" fill="#FF6C37"/>
<path id="Vector_19" d="M24.3752 27.5245L21.6257 28.1244C21.4257 28.1744 21.2258 28.0495 21.1758 27.8495C21.1508 27.7245 21.1758 27.5995 21.2757 27.4995L22.8005 25.9748L24.3752 27.5245Z" fill="white"/>
<path id="Vector_20" d="M21.5756 28.3743C21.2256 28.3743 20.9507 28.0994 20.9507 27.7495C20.9507 27.5745 21.0257 27.4245 21.1257 27.2995L22.6504 25.7748C22.7504 25.6748 22.9003 25.6748 23.0003 25.7748L24.575 27.3495C24.65 27.4245 24.675 27.4995 24.65 27.5995C24.625 27.6745 24.55 27.7495 24.4501 27.7745L21.7005 28.3743C21.6506 28.3743 21.6006 28.3743 21.5756 28.3743ZM22.8253 26.2997L21.4756 27.6495C21.4256 27.6995 21.4256 27.7495 21.4506 27.7994C21.4756 27.8494 21.5256 27.8744 21.6006 27.8744L23.9002 27.3745L22.8253 26.2997Z" fill="#FF6C37"/>
<path id="Vector_21" d="M39.6973 12.6772C39.6473 12.5272 39.4724 12.4522 39.3224 12.5022C39.1724 12.5522 39.0974 12.7272 39.1474 12.8771C39.1474 12.9021 39.1724 12.9271 39.1724 12.9521C39.3224 13.2521 39.2724 13.627 39.0724 13.902C38.9725 14.0269 38.9975 14.2019 39.0974 14.3019C39.2224 14.4019 39.3974 14.3769 39.4974 14.2519C39.8723 13.777 39.9473 13.1771 39.6973 12.6772Z" fill="#FF6C37"/>
</g>
</g>
</svg>
