<svg width="50" height="50" viewBox="0 0 50 50" fill="none" xmlns="http://www.w3.org/2000/svg">
<g id="Frame">
<path id="Vector" d="M23.9584 4.16669C17.0657 4.16669 11.4584 11.7396 11.4584 21.0469C11.4584 26.0823 13.1063 30.5979 15.7063 33.6886C15.6563 33.9104 15.625 34.1386 15.625 34.375C15.625 36.1011 17.024 37.5 18.75 37.5C20.4761 37.5 21.875 36.1011 21.875 34.375C21.875 32.649 20.4761 31.25 18.75 31.25C18.4219 31.25 18.1125 31.3146 17.8157 31.4084C15.8396 28.8865 14.5834 25.1823 14.5834 21.0469C14.5834 13.4625 18.7886 7.29169 23.9584 7.29169C27.9553 7.29169 31.3657 10.9865 32.7125 16.1646C33.8813 16.525 35.0428 16.9792 36.1813 17.5271C34.9782 9.90419 29.9573 4.16669 23.9584 4.16669Z" fill="#7E57C2"/>
<path id="Vector_2" d="M36.9865 20.9209C32.875 18.4292 28.2635 17.3354 24.2969 17.8386C23.724 17.1292 22.8573 16.6667 21.875 16.6667C20.149 16.6667 18.75 18.0656 18.75 19.7917C18.75 21.5177 20.149 22.9167 21.875 22.9167C23.2 22.9167 24.326 22.0886 24.7802 20.925C28.0281 20.5302 31.876 21.4781 35.3667 23.5948C42.0365 27.6375 45.4396 34.6042 42.9521 39.1271C42.0906 40.6938 40.5708 41.8063 38.5583 42.3459C36.1771 42.9823 33.3427 42.7563 30.5094 41.7959C29.6354 42.6 28.6875 43.3563 27.6708 44.0542C30.3292 45.2177 33.0833 45.8292 35.6594 45.8292C36.951 45.8292 38.199 45.6761 39.3667 45.3636C42.2219 44.6 44.4094 42.9636 45.6906 40.6323C48.975 34.6625 45.0698 25.8198 36.9865 20.9209Z" fill="#7E57C2"/>
<path id="Vector_3" d="M36.4583 30.2C36.4583 28.4792 35.0593 27.0833 33.3333 27.0833C31.6073 27.0833 30.2083 28.4792 30.2083 30.2C30.2083 30.8969 30.4458 31.5344 30.8333 32.0531C29.501 34.9719 26.9333 37.8521 23.4771 39.9469C19.451 42.3885 14.951 43.2823 11.4406 42.3448C9.42809 41.8052 7.9083 40.6927 7.04684 39.126C5.27393 35.9031 6.50413 31.4427 9.76559 27.6802C9.42913 26.4885 9.18018 25.2427 9.03018 23.9562C3.74893 28.9531 1.62497 35.751 4.30934 40.6323C5.59059 42.9635 7.77809 44.6 10.6333 45.3635C11.801 45.676 13.0479 45.8292 14.3406 45.8292C17.826 45.8292 21.6396 44.7167 25.0968 42.6208C29.0927 40.1989 32.0583 36.8114 33.6479 33.2854C35.2239 33.126 36.4583 31.8135 36.4583 30.2Z" fill="#7E57C2"/>
</g>
</svg>
