<svg width="67" height="50" viewBox="0 0 67 50" fill="none" xmlns="http://www.w3.org/2000/svg">
<g id="Sass_Logo_Color 1" clip-path="url(#clip0_68_122)">
<path id="Vector" d="M56.87 28.7384C54.5658 28.7506 52.5631 29.3107 50.8862 30.1388C50.271 28.9089 49.6557 27.8129 49.5471 27.0092C49.4265 26.0716 49.2817 25.4992 49.4265 24.3789C49.5712 23.2586 50.2227 21.6634 50.2106 21.5416C50.1986 21.4198 50.0659 20.8475 48.7388 20.8353C47.4118 20.8232 46.2657 21.0911 46.133 21.4442C46.0003 21.7973 45.7469 22.601 45.578 23.4291C45.3488 24.6468 42.9239 28.9941 41.5366 31.2713C41.0902 30.3823 40.7042 29.603 40.6197 28.982C40.4991 28.0443 40.3543 27.472 40.4991 26.3517C40.6438 25.2313 41.2953 23.6361 41.2832 23.5143C41.2712 23.3926 41.1385 22.8202 39.8114 22.8081C38.4844 22.7959 37.3383 23.0638 37.2056 23.4169C37.0729 23.7701 36.9281 24.5981 36.6506 25.4018C36.3732 26.2055 33.152 33.4632 32.3076 35.3385C31.8733 36.3005 31.4993 37.0677 31.2339 37.5913C31.2339 37.5913 31.2218 37.6278 31.1856 37.6887C30.9564 38.1393 30.8237 38.3828 30.8237 38.3828C30.8237 38.3828 30.8237 38.3828 30.8237 38.395C30.6427 38.7238 30.4497 39.0282 30.3532 39.0282C30.2808 39.0282 30.1481 38.1515 30.3773 36.9581C30.8599 34.4374 32.006 30.5163 31.9939 30.3823C31.9939 30.3093 32.2111 29.6274 31.2459 29.2742C30.3049 28.9211 29.9671 29.5056 29.8827 29.5056C29.7982 29.5056 29.7379 29.7126 29.7379 29.7126C29.7379 29.7126 30.7875 25.3044 27.7353 25.3044C25.8292 25.3044 23.1992 27.4111 21.8963 29.3107C21.0759 29.7613 19.3266 30.7233 17.4567 31.7584C16.7449 32.1602 16.009 32.5621 15.3214 32.9396C15.2731 32.8909 15.2248 32.83 15.1766 32.7813C11.485 28.7993 4.65672 25.9863 4.94626 20.6405C5.05483 18.6921 5.71836 13.5777 18.0599 7.36724C28.2178 2.31366 36.3008 3.71405 37.7002 6.81927C39.7028 11.2518 33.3692 19.4837 22.8735 20.677C18.8682 21.1276 16.769 19.5689 16.2382 18.9844C15.6833 18.3755 15.5988 18.339 15.3937 18.4608C15.0559 18.6434 15.2731 19.1914 15.3937 19.508C15.7074 20.3361 16.9983 21.7973 19.1819 22.5158C21.1121 23.149 25.805 23.5022 31.4872 21.2859C37.845 18.8017 42.8154 11.8972 41.3556 6.11298C39.8959 0.243523 30.2446 -1.69267 21.1121 1.58303C15.6833 3.53139 9.79601 6.60007 5.56152 10.5942C0.530808 15.3434 -0.26542 19.4715 0.0603096 21.2007C1.23052 27.338 9.61505 31.3322 12.9689 34.2913C12.8 34.3887 12.6431 34.4739 12.5104 34.547C10.8335 35.3872 4.43957 38.7603 2.84711 42.3283C1.0375 46.3711 3.13665 49.2693 4.52401 49.659C8.83089 50.8646 13.2584 48.697 15.635 45.1169C18.0116 41.5368 17.7221 36.885 16.6243 34.754C16.6122 34.7296 16.6001 34.7053 16.576 34.6809C17.0103 34.4252 17.4567 34.1573 17.891 33.9016C18.7476 33.3901 19.592 32.9152 20.3159 32.5255C19.9057 33.658 19.6041 35.0097 19.4593 36.9581C19.2784 39.2474 20.2073 42.2187 21.4258 43.3877C21.9687 43.8991 22.6081 43.9113 23.0182 43.9113C24.4418 43.9113 25.0812 42.7179 25.793 41.3054C26.6616 39.5762 27.4457 37.567 27.4457 37.567C27.4457 37.567 26.4686 42.998 29.1226 42.998C30.0878 42.998 31.065 41.7316 31.4993 41.0862C31.4993 41.0984 31.4993 41.0984 31.4993 41.0984C31.4993 41.0984 31.5234 41.0618 31.5717 40.9766C31.6682 40.8183 31.7285 40.7209 31.7285 40.7209C31.7285 40.7209 31.7285 40.7087 31.7285 40.6965C32.1145 40.0146 32.9832 38.4681 34.274 35.8987C35.9388 32.5864 37.5434 28.4462 37.5434 28.4462C37.5434 28.4462 37.6881 29.4569 38.1828 31.1373C38.4723 32.1237 39.0755 33.2075 39.5581 34.2547C39.172 34.8027 38.9307 35.1071 38.9307 35.1071C38.9307 35.1071 38.9307 35.1071 38.9428 35.1193C38.6291 35.5333 38.2913 35.9839 37.9174 36.4223C36.6024 38.0053 35.034 39.8197 34.8169 40.3434C34.5635 40.9644 34.6239 41.415 35.1064 41.7803C35.4563 42.0482 36.0836 42.0847 36.723 42.0482C37.9053 41.963 38.7377 41.6707 39.1479 41.488C39.7873 41.2567 40.5353 40.9035 41.235 40.3799C42.5258 39.4179 43.31 38.0419 43.2376 36.2274C43.2014 35.2289 42.8757 34.2304 42.4776 33.2927C42.5982 33.1222 42.7068 32.9518 42.8274 32.7813C44.8663 29.7735 46.4467 26.4734 46.4467 26.4734C46.4467 26.4734 46.5914 27.4841 47.086 29.1646C47.3273 30.017 47.822 30.9425 48.2563 31.8436C46.3381 33.4145 45.1558 35.2411 44.7336 36.4345C43.9735 38.6507 44.5647 39.6493 45.6866 39.8806C46.1933 39.9902 46.9171 39.7467 47.448 39.5153C48.1236 39.2961 48.9198 38.9186 49.6798 38.3585C50.9707 37.3965 52.2133 36.057 52.1409 34.2425C52.1047 33.4145 51.8875 32.5986 51.5859 31.8071C53.2146 31.1252 55.3137 30.7477 57.992 31.0643C63.7345 31.7462 64.8685 35.3629 64.6513 36.885C64.4342 38.4072 63.2278 39.2352 62.8297 39.491C62.4315 39.7467 62.2988 39.8319 62.335 40.0146C62.3833 40.2825 62.5763 40.2703 62.9141 40.2216C63.3846 40.1364 65.9301 38.9917 66.0387 36.1909C66.2197 32.6108 62.8417 28.7019 56.87 28.7384ZM12.5707 43.8139C10.6646 45.9084 8.01053 46.6999 6.86444 46.0302C5.63391 45.3117 6.11647 42.2187 8.4569 40.0024C9.88046 38.6507 11.7142 37.3965 12.9327 36.6293C13.2101 36.4588 13.6203 36.2153 14.1149 35.9108C14.1994 35.8621 14.2477 35.8378 14.2477 35.8378C14.3442 35.7769 14.4407 35.716 14.5372 35.6551C15.3937 38.8212 14.5734 41.6098 12.5707 43.8139ZM26.4444 34.2913C25.7809 35.923 24.3935 40.0998 23.549 39.8685C22.8252 39.6736 22.3788 36.5075 23.4043 33.378C23.923 31.8071 25.0209 29.9318 25.6603 29.2011C26.6978 28.0321 27.8439 27.6425 28.1213 28.1174C28.4712 28.7384 26.8546 33.2684 26.4444 34.2913ZM37.8932 39.8198C37.6158 39.9659 37.3503 40.0633 37.2297 39.9902C37.1453 39.9415 37.3503 39.7467 37.3503 39.7467C37.3503 39.7467 38.786 38.188 39.353 37.4817C39.6787 37.0677 40.0648 36.5806 40.4749 36.0326C40.4749 36.0813 40.4749 36.1422 40.4749 36.1909C40.4749 38.054 38.6895 39.3083 37.8932 39.8198ZM46.7241 37.7861C46.519 37.64 46.5552 37.1529 47.2429 35.6308C47.5083 35.0341 48.1356 34.0355 49.2093 33.0735C49.33 33.4632 49.4144 33.8407 49.4023 34.1938C49.3903 36.5441 47.7254 37.4208 46.7241 37.7861Z" fill="#CD6799"/>
</g>
<defs>
<clipPath id="clip0_68_122">
<rect width="66.087" height="50" fill="white"/>
</clipPath>
</defs>
</svg>
