<svg width="84" height="50" viewBox="0 0 84 50" fill="none" xmlns="http://www.w3.org/2000/svg">
<g id="Tailwind CSS 1" clip-path="url(#clip0_68_146)">
<path id="Vector" d="M41.6667 0.0666504C30.5557 0.0666504 23.611 5.60754 20.8333 16.689C25 11.1481 29.861 9.07031 35.4167 10.4556C38.5863 11.2458 40.8519 13.5395 43.3597 16.078C47.445 20.2138 52.1729 25.0002 62.5 25.0002C73.611 25.0002 80.5557 19.4593 83.3333 8.37782C79.1667 13.9187 74.3057 15.9965 68.75 14.6112C65.5804 13.821 63.3148 11.5273 60.807 8.98882C56.7217 4.85304 51.9938 0.0666504 41.6667 0.0666504ZM20.8333 25.0002C9.72233 25.0002 2.77767 30.541 0 41.6225C4.16667 36.0816 9.02767 34.0038 14.5833 35.3891C17.7529 36.1793 20.0186 38.473 22.5264 41.0115C26.6117 45.1473 31.3395 49.9337 41.6667 49.9337C52.7777 49.9337 59.7223 44.3928 62.5 33.3113C58.3333 38.8522 53.4723 40.93 47.9167 39.5447C44.7471 38.7545 42.4814 36.4608 39.9736 33.9223C35.8883 29.7866 31.1605 25.0002 20.8333 25.0002Z" fill="url(#paint0_linear_68_146)"/>
</g>
<defs>
<linearGradient id="paint0_linear_68_146" x1="-592.64" y1="2451.13" x2="-347.181" y2="5212.83" gradientUnits="userSpaceOnUse">
<stop stop-color="#2298BD"/>
<stop offset="1" stop-color="#0ED7B5"/>
</linearGradient>
<clipPath id="clip0_68_146">
<rect width="83.3333" height="50" fill="white"/>
</clipPath>
</defs>
</svg>
