<svg width="75" height="75" viewBox="0 0 75 75" fill="none" xmlns="http://www.w3.org/2000/svg">
<g id="whatsapp">
<path id="bg" d="M0 37.5C0 58.2107 16.7893 75 37.5 75C58.2107 75 75 58.2107 75 37.5C75 16.7893 58.2107 0 37.5 0C16.7893 0 0 16.7893 0 37.5Z" fill="#25D366"/>
<path id="whatsapp_2" fill-rule="evenodd" clip-rule="evenodd" d="M50.625 24.1406C47.1094 20.625 42.4219 18.75 37.5 18.75C27.1875 18.75 18.75 27.1875 18.75 37.5C18.75 40.7812 19.6875 44.0625 21.3281 46.875L18.75 56.25L28.5938 53.6719C31.4063 55.0781 34.4531 56.0156 37.5 56.0156C47.8125 56.0156 56.25 47.5781 56.25 37.2656C56.25 32.3437 54.1406 27.6562 50.625 24.1406ZM37.5 52.9688C34.6875 52.9688 31.875 52.2656 29.5313 50.8594L29.0625 50.625L23.2031 52.2656L24.8438 46.6406L24.375 45.9375C22.7344 43.3594 22.0312 40.5469 22.0312 37.7344C22.0312 29.2969 29.0625 22.2656 37.5 22.2656C41.7188 22.2656 45.4688 23.9062 48.5157 26.7187C51.5625 29.7656 52.9688 33.5156 52.9688 37.7344C52.9688 45.9375 46.1719 52.9688 37.5 52.9688ZM45.9375 41.25C45.4688 41.0156 43.125 39.8438 42.6563 39.8438C42.1875 39.6094 41.9531 39.6094 41.7187 40.0781C41.4843 40.5469 40.5469 41.4844 40.3125 41.9531C40.0782 42.1875 39.8437 42.1875 39.375 42.1875C38.9062 41.9531 37.5 41.4844 35.625 39.8438C34.2188 38.6719 33.2813 37.0312 33.0469 36.5625C32.8125 36.0938 33.0469 35.8594 33.2813 35.625C33.5157 35.3906 33.75 35.1562 33.9844 34.9219C34.2188 34.6875 34.2188 34.4531 34.4532 34.2188C34.6875 33.9844 34.4532 33.75 34.4532 33.5156C34.4532 33.2812 33.5156 30.9375 33.0469 30C32.8125 29.2969 32.3438 29.2969 32.1094 29.2969C31.875 29.2969 31.6406 29.2969 31.1718 29.2969C30.9375 29.2969 30.4687 29.2969 30 29.7656C29.5312 30.2344 28.3594 31.4062 28.3594 33.75C28.3594 36.0938 30 38.2031 30.2344 38.6719C30.4687 38.9062 33.5156 43.8281 38.2031 45.7031C42.1875 47.3438 42.8907 46.875 43.8282 46.875C44.7657 46.875 46.6406 45.7031 46.875 44.7656C47.3438 43.5938 47.3438 42.6563 47.1094 42.6563C46.875 41.4844 46.4063 41.4844 45.9375 41.25Z" fill="white"/>
</g>
</svg>
